<svg width="28" height="27" viewBox="0 0 28 27" fill="none" xmlns="http://www.w3.org/2000/svg">
<path d="M14.4442 6.83036C16.6126 6.83036 18.0753 7.76701 18.9093 8.5497L22.1683 5.36765C20.1667 3.50718 17.5621 2.36523 14.4442 2.36523C9.92771 2.36523 6.02714 4.95706 4.12817 8.72933L7.86195 11.6291C8.7986 8.8448 11.3904 6.83036 14.4442 6.83036Z" fill="#EA4335"/>
<path d="M25.53 14.1695C25.53 13.22 25.453 12.5271 25.2862 11.8086H14.4442V16.0941H20.8082C20.6799 17.159 19.9871 18.7629 18.4474 19.8407L22.0913 22.6635C24.2726 20.649 25.53 17.6851 25.53 14.1695Z" fill="#4285F4"/>
<path d="M7.87479 16.1968C7.631 15.4783 7.48986 14.7084 7.48986 13.9129C7.48986 13.1174 7.631 12.3475 7.86196 11.629L4.12818 8.72925C3.3455 10.2946 2.89642 12.0524 2.89642 13.9129C2.89642 15.7734 3.3455 17.5312 4.12818 19.0966L7.87479 16.1968Z" fill="#FBBC05"/>
<path d="M14.4441 25.4606C17.562 25.4606 20.1795 24.4342 22.0913 22.6635L18.4474 19.8407C17.4722 20.5208 16.1635 20.9955 14.4441 20.9955C11.3904 20.9955 8.79858 18.9811 7.87476 16.1968L4.14099 19.0965C6.03995 22.8688 9.9277 25.4606 14.4441 25.4606Z" fill="#34A853"/>
</svg>
