<svg width="40" height="40" viewBox="0 0 40 40" fill="none" xmlns="http://www.w3.org/2000/svg">
<path fill-rule="evenodd" clip-rule="evenodd" d="M20 40C31.0457 40 40 31.0457 40 20C40 8.9543 31.0457 0 20 0C8.9543 0 0 8.9543 0 20C0 31.0457 8.9543 40 20 40ZM2.71905 16.3532L4.8738 18.6253C5.11069 18.8751 5.04406 19.2396 4.72863 19.4195C4.39205 19.6114 4.34681 20.004 4.65173 20.2296C5.54551 20.8908 7.45538 22.1586 10.0759 23.106C13.2987 24.2712 15.437 24.7607 15.909 24.8685C15.9803 24.8848 16.0489 24.9062 16.1148 24.9341L16.8135 25.2288C16.9838 25.3006 17.126 25.4114 17.2232 25.5482L19.2706 28.5908C19.659 29.1369 20.6083 29.1369 20.9967 28.5908L23.0441 25.5482C23.1413 25.4114 23.2835 25.3006 23.4538 25.2288L24.1525 24.9341C24.2184 24.9062 24.287 24.8848 24.3583 24.8685C24.8303 24.7607 26.9686 24.2712 30.1914 23.106C32.6812 22.2059 34.5295 21.0165 35.4743 20.3329C35.8665 20.0491 35.8324 19.5528 35.427 19.2821C35.031 19.0177 34.9829 18.5308 35.3216 18.2161L37.2405 16.4333C37.8776 15.8413 37.2544 14.9132 36.3148 15.0547L23.9034 16.8956C23.6082 16.9401 23.3052 16.8657 23.0862 16.6951C22.6967 16.3915 22.9182 15.881 23.2929 15.5648L23.502 15.3884C23.8874 15.0633 24.0042 14.5408 23.6188 14.2157L20.9279 11.2488C20.5351 10.9175 19.8927 10.9175 19.5 11.2489L16.6485 14.2157C16.2631 14.5408 16.3799 15.0633 16.7652 15.3884L16.9744 15.5648C17.3491 15.881 17.5705 16.3915 17.1811 16.6951C16.9621 16.8657 16.6591 16.9401 16.3639 16.8956L3.68493 15.0144C2.7759 14.8775 2.14667 15.7496 2.71905 16.3532Z" fill="url(#paint0_linear_23882_9180)"/>
<defs>
<linearGradient id="paint0_linear_23882_9180" x1="20" y1="0" x2="20" y2="40" gradientUnits="userSpaceOnUse">
<stop stop-color="#FF009A"/>
<stop offset="1" stop-color="#DF00FF"/>
</linearGradient>
</defs>
</svg>
