<svg width="98" height="43" viewBox="0 0 98 43" fill="none" xmlns="http://www.w3.org/2000/svg">
<path d="M96.4439 6.79112L58.8933 11.7481C58.6791 11.7764 58.4795 11.8746 58.3268 12.028L55.2357 15.1147C54.8513 15.4995 54.2298 15.4995 53.8441 15.1147L53.303 14.5738C52.9146 14.1863 52.9146 13.5552 53.303 13.1677L56.9928 9.48357C57.3813 9.09605 57.3813 8.46498 56.9928 8.07747L49.6949 0.788621C49.3105 0.403793 48.689 0.403793 48.3033 0.788621L41.0054 8.07747C40.617 8.46498 40.617 9.09605 41.0054 9.48357L44.6952 13.1677C45.0836 13.5552 45.0836 14.1863 44.6952 14.5738L44.1541 15.1147C43.7697 15.4995 43.1483 15.4995 42.7625 15.1147L39.6714 12.028C39.5174 11.8746 39.3191 11.7764 39.1049 11.7481L1.5556 6.79112C0.619417 6.66733 0.0622579 7.80836 0.731919 8.47709L8.92054 16.6553C9.54466 17.2783 9.10536 18.3494 8.22543 18.3494C7.34549 18.3494 6.9062 19.4205 7.53032 20.0434L15.206 27.709C15.3319 27.8342 15.4899 27.9243 15.6614 27.9674L41.7889 34.5471C42.0005 34.6009 42.1893 34.7234 42.3246 34.8956L46.3667 40.0545C47.0872 41.0542 48.3047 42.2114 48.3047 42.2114C48.689 42.5962 49.3105 42.5962 49.6962 42.2114C49.6962 42.2114 50.7034 41.1888 51.6342 40.0545L55.6763 34.8956C55.8116 34.7234 55.9991 34.6009 56.212 34.5471L82.3395 27.9674C82.5123 27.9243 82.669 27.8342 82.7949 27.709L90.4706 20.0434C91.0947 19.4205 90.6554 18.3494 89.7755 18.3494C88.8955 18.3494 88.4562 17.2783 89.0803 16.6553L97.269 8.47709C97.9373 7.80836 97.3801 6.66867 96.4439 6.79112Z" fill="#EE0077"/>
</svg>
