<svg width="54" height="54" viewBox="0 0 54 54" fill="none" xmlns="http://www.w3.org/2000/svg">
<circle cx="27" cy="27" r="26" fill="url(#paint0_linear_23583_189866)" stroke="#EDE4E7" stroke-width="2"/>
<path d="M10.4441 33.625V21.945H14.5721L16.9721 28.105H17.2921L19.6761 21.945H23.8841V33.625H20.9401V23.657L21.4041 23.689L18.3961 31.273H15.6921L12.6681 23.689L13.1641 23.657V33.625H10.4441ZM30.0966 33.945C29.0086 33.945 28.0913 33.7743 27.3446 33.433C26.6086 33.0917 26.0486 32.6277 25.6646 32.041C25.2913 31.4437 25.1046 30.761 25.1046 29.993H27.9846C27.9846 30.2703 28.0593 30.5263 28.2086 30.761C28.3686 30.985 28.6033 31.161 28.9126 31.289C29.2219 31.417 29.6166 31.481 30.0966 31.481C30.5126 31.481 30.8646 31.4277 31.1526 31.321C31.4513 31.2143 31.6753 31.065 31.8246 30.873C31.9846 30.681 32.0646 30.4517 32.0646 30.185C32.0646 29.8437 31.9206 29.5823 31.6326 29.401C31.3446 29.209 30.8593 29.0863 30.1766 29.033L29.4246 28.969C28.2193 28.8623 27.2593 28.4837 26.5446 27.833C25.8299 27.1823 25.4726 26.3183 25.4726 25.241C25.4726 24.473 25.6486 23.817 26.0006 23.273C26.3633 22.729 26.8699 22.313 27.5206 22.025C28.1713 21.737 28.9393 21.593 29.8246 21.593C30.7846 21.593 31.5953 21.753 32.2566 22.073C32.9286 22.393 33.4406 22.8463 33.7926 23.433C34.1446 24.009 34.3206 24.681 34.3206 25.449H31.4406C31.4406 25.193 31.3766 24.9583 31.2486 24.745C31.1206 24.5317 30.9339 24.3663 30.6886 24.249C30.4539 24.121 30.1659 24.057 29.8246 24.057C29.5046 24.057 29.2326 24.1103 29.0086 24.217C28.7953 24.313 28.6299 24.4517 28.5126 24.633C28.4059 24.8143 28.3526 25.017 28.3526 25.241C28.3526 25.5397 28.4539 25.7957 28.6566 26.009C28.8593 26.2223 29.2113 26.3503 29.7126 26.393L30.4646 26.457C31.3393 26.5317 32.1126 26.7237 32.7846 27.033C33.4566 27.3317 33.9846 27.7423 34.3686 28.265C34.7526 28.7877 34.9446 29.4277 34.9446 30.185C34.9446 30.9423 34.7473 31.6037 34.3526 32.169C33.9686 32.7343 33.4139 33.1717 32.6886 33.481C31.9739 33.7903 31.1099 33.945 30.0966 33.945ZM38.1401 33.625V24.217H41.1161V33.625H38.1401ZM34.9401 24.537V21.945H44.3161V24.537H34.9401Z" fill="white"/>
<defs>
<linearGradient id="paint0_linear_23583_189866" x1="-5.29483" y1="-6.20311" x2="81.5069" y2="-21.9719" gradientUnits="userSpaceOnUse">
<stop stop-color="#ED3C91"/>
<stop offset="1" stop-color="#FF98CA"/>
</linearGradient>
</defs>
</svg>
