<svg width="34" height="34" viewBox="0 0 34 34" fill="none" xmlns="http://www.w3.org/2000/svg">
<path fill-rule="evenodd" clip-rule="evenodd" d="M5.27119 1.86909C6.90868 0.993348 8.52223 0.666992 12.2045 0.666992H21.7962C25.4784 0.666992 27.092 0.993348 28.7295 1.86909C30.1924 2.65146 31.3492 3.80828 32.1316 5.27119C33.0073 6.90868 33.3337 8.52223 33.3337 12.2045V21.7962C33.3337 25.4784 33.0073 27.092 32.1316 28.7295C31.3492 30.1924 30.1924 31.3492 28.7295 32.1316C27.092 33.0073 25.4784 33.3337 21.7962 33.3337H12.2045C8.52223 33.3337 6.90868 33.0073 5.27119 32.1316C3.80828 31.3492 2.65146 30.1924 1.86909 28.7295C0.993348 27.092 0.666992 25.4784 0.666992 21.7962V12.2045C0.666992 8.52223 0.993348 6.90868 1.86909 5.27119C2.65146 3.80828 3.80828 2.65146 5.27119 1.86909ZM20.8623 17.265C21.0862 16.9666 21.5015 16.9124 21.79 17.144C21.8366 17.1814 21.8782 17.2251 21.9136 17.2739L28.5347 26.406C28.7538 26.7082 28.6946 27.1369 28.4025 27.3635C28.288 27.4523 28.1488 27.5003 28.0057 27.5003H7.16154C6.79636 27.5003 6.50033 27.1941 6.50033 26.8164C6.50033 26.6643 6.54934 26.5165 6.63961 26.3964L11.4759 19.9643C11.7001 19.6661 12.1155 19.6124 12.4038 19.8443C12.4415 19.8747 12.4759 19.9092 12.5065 19.9472L15.8337 24.0003L20.8623 17.265ZM10.0003 12.3337C11.289 12.3337 12.3337 11.289 12.3337 10.0003C12.3337 8.71166 11.289 7.66699 10.0003 7.66699C8.71166 7.66699 7.66699 8.71166 7.66699 10.0003C7.66699 11.289 8.71166 12.3337 10.0003 12.3337Z" fill="#D5CDD0"/>
</svg>
