<svg width="64" height="59" viewBox="0 0 64 59" fill="none" xmlns="http://www.w3.org/2000/svg">
<path d="M62.375 40.8125L42 6C40.9583 4.25 39.5417 2.875 37.75 1.875C36 0.833333 34.0833 0.3125 32 0.3125C29.9583 0.3125 28.0417 0.833333 26.25 1.875C24.4583 2.875 23.0417 4.25 22 6L1.625 40.8125C0.583333 42.6042 0.0416667 44.5417 0 46.625C0 48.7083 0.520833 50.6458 1.5625 52.4375C2.5625 54.2708 3.95833 55.7083 5.75 56.75C7.54167 57.8333 9.47917 58.375 11.5625 58.375H52.375C54.5 58.3333 56.4583 57.7917 58.25 56.75C60.0417 55.7083 61.4375 54.2708 62.4375 52.4375C63.4792 50.6458 63.9792 48.7083 63.9375 46.625C63.9375 44.5417 63.4167 42.6042 62.375 40.8125ZM29.0625 43.875C29.0625 43.0417 29.3333 42.3542 29.875 41.8125C30.4583 41.2292 31.1667 40.9375 32 40.9375C32.8333 40.9375 33.5208 41.2292 34.0625 41.8125C34.6458 42.3542 34.9375 43.0417 34.9375 43.875C34.9375 44.6667 34.6458 45.3542 34.0625 45.9375C33.5208 46.4792 32.8333 46.75 32 46.75C31.1667 46.75 30.4583 46.4792 29.875 45.9375C29.3333 45.3542 29.0625 44.6667 29.0625 43.875ZM29.0625 38V17.75H34.9375V38H29.0625Z" fill="#F754A3"/>
</svg>
